<?xml version="1.0" standalone="no"?>
<!DOCTYPE svg PUBLIC "-//W3C//DTD SVG 20010904//EN"
 "http://www.w3.org/TR/2001/REC-SVG-20010904/DTD/svg10.dtd">
<svg version="1.0" xmlns="http://www.w3.org/2000/svg"
 width="265.000000pt" height="265.000000pt" viewBox="0 0 265.000000 265.000000"
 preserveAspectRatio="xMidYMid meet">
<metadata>
Created by potrace 1.11, written by Peter Selinger 2001-2013
</metadata>
<g transform="translate(0.000000,265.000000) scale(0.100000,-0.100000)"
fill="#000000" stroke="none">
<path d="M845 2414 c-249 -36 -335 -76 -388 -181 -23 -44 -24 -45 -78 -47 -67
-3 -123 -31 -175 -88 -89 -97 -155 -250 -185 -434 -18 -113 -20 -158 -16 -359
4 -216 6 -237 35 -345 42 -157 95 -293 135 -343 18 -23 49 -68 68 -101 19 -32
52 -74 74 -93 38 -33 222 -130 230 -121 2 2 -13 30 -35 63 -22 33 -37 61 -35
63 2 2 30 -12 62 -31 32 -19 112 -62 177 -94 l120 -58 165 -3 c149 -3 170 -1
225 19 67 24 203 90 285 138 28 17 54 31 57 31 3 0 -14 -27 -36 -60 -22 -33
-38 -60 -34 -60 3 0 61 28 128 62 143 75 192 119 265 240 47 79 55 100 76 210
40 211 50 307 50 495 l0 181 80 36 c68 31 91 36 153 36 112 0 262 19 309 40
34 15 44 25 52 57 32 118 41 386 18 519 -17 94 -35 120 -98 138 -119 36 -469
44 -622 16 -107 -20 -129 -42 -141 -135 -4 -28 -9 -65 -12 -83 l-5 -33 -64 60
c-102 95 -274 187 -441 236 -73 22 -114 27 -229 30 -77 2 -153 1 -170 -1z
m1639 -108 c80 -18 92 -26 107 -75 29 -96 20 -493 -13 -567 -18 -39 -135 -63
-313 -64 l-100 0 -114 -55 c-62 -30 -120 -55 -127 -55 -11 0 -8 13 12 52 25
49 25 52 8 65 -10 7 -28 13 -39 13 -36 0 -85 21 -95 40 -32 61 -39 497 -9 585
16 46 44 59 158 75 97 13 442 4 525 -14z m-1051 -560 c54 -20 110 -36 126 -36
27 0 100 -46 101 -64 0 -5 -17 -6 -37 -2 -21 3 -140 9 -265 13 -169 4 -231 3
-241 -6 -9 -7 -17 -41 -22 -86 -6 -72 -8 -74 -27 -64 -13 7 -44 9 -75 6 l-53
-6 0 59 c0 95 2 94 -230 86 l-195 -7 26 28 c15 15 30 38 34 51 8 26 -2 26 115
2 110 -23 256 -36 294 -26 28 7 35 33 14 54 -24 24 3 22 118 -9 113 -30 214
-42 229 -27 4 4 -6 24 -21 44 -34 44 -40 44 109 -10z m146 -156 c68 -5 125
-11 128 -13 8 -8 26 -385 19 -403 -6 -15 -22 -16 -204 -10 -108 3 -236 9 -284
12 l-88 7 0 207 c0 113 3 210 8 214 7 8 201 1 421 -14z m-695 -31 c3 -17 6
-111 6 -209 l0 -177 -31 -7 c-17 -3 -148 -9 -290 -13 l-259 -6 0 109 c1 117
14 301 22 309 7 8 251 22 404 24 l142 1 6 -31z m189 -126 c14 -14 17 -35 17
-148 0 -105 3 -135 15 -145 19 -16 228 -29 464 -30 l183 0 -7 -97 c-15 -216
-51 -411 -83 -446 -47 -53 -363 -221 -502 -267 -106 -36 -172 -38 -266 -9 -83
26 -263 115 -394 196 -88 55 -97 63 -124 118 -43 91 -63 186 -71 341 l-7 141
189 7 c324 11 422 18 440 31 15 11 18 37 23 161 5 146 5 149 30 161 28 15 67
9 93 -14z"/>
<path d="M2027 2180 c-4 -16 -14 -20 -46 -20 l-41 0 0 -225 0 -225 243 2 242
3 3 223 2 222 -49 0 c-40 0 -50 3 -54 20 -4 15 -14 20 -42 20 -28 0 -38 -5
-42 -20 -5 -17 -14 -20 -65 -20 -51 0 -61 3 -65 20 -4 16 -14 20 -43 20 -29 0
-39 -4 -43 -20z m73 -20 c0 -16 -7 -20 -30 -20 -23 0 -30 4 -30 20 0 16 7 20
30 20 23 0 30 -4 30 -20z m210 0 c0 -15 -7 -20 -25 -20 -18 0 -25 5 -25 20 0
15 7 20 25 20 18 0 25 -5 25 -20z m97 -234 c-7 -139 -16 -170 -49 -180 -13 -4
-110 -10 -215 -13 l-193 -6 0 155 c0 85 3 158 7 161 3 4 108 7 231 7 l225 0
-6 -124z m3 -181 c0 -8 -7 -15 -16 -15 -14 0 -14 3 -4 15 7 8 14 15 16 15 2 0
4 -7 4 -15z"/>
<path d="M2057 2003 c-29 -7 -16 -39 14 -35 14 2 31 -4 38 -12 15 -18 4 -41
-46 -97 -50 -55 -41 -71 39 -67 50 2 63 6 66 21 3 14 -4 17 -38 17 l-42 0 36
40 c72 80 32 159 -67 133z"/>
<path d="M2209 2005 c0 0 -1 -26 -2 -58 -2 -52 0 -57 19 -57 30 0 58 -24 51
-44 -4 -10 -18 -16 -41 -16 -36 0 -57 -24 -30 -34 53 -20 124 16 124 64 0 26
-34 60 -60 60 -15 0 -20 7 -20 25 0 22 4 25 36 25 27 0 35 4 32 16 -3 15 -27
19 -109 19z"/>
<path d="M1286 1444 c-24 -23 -20 -53 9 -66 19 -8 28 -8 40 2 21 18 19 57 -4
70 -25 13 -27 13 -45 -6z"/>
<path d="M656 1434 c-9 -8 -16 -22 -16 -29 0 -17 27 -45 44 -45 36 0 49 62 17
80 -25 13 -27 13 -45 -6z"/>
<path d="M1380 908 c0 -7 9 -28 20 -46 11 -18 20 -37 20 -42 0 -5 -25 -36 -56
-69 -97 -106 -214 -148 -384 -138 -153 8 -263 60 -343 160 l-31 37 22 39 c39
70 24 81 -32 25 -34 -34 -40 -36 -86 -32 -27 3 -52 3 -55 0 -9 -9 48 -42 72
-42 15 0 32 -14 52 -43 84 -123 219 -191 401 -203 98 -7 201 11 286 50 59 27
153 110 190 167 15 25 32 38 55 43 34 6 59 22 59 37 0 5 -11 4 -24 -2 -40 -18
-92 -3 -123 36 -29 37 -43 44 -43 23z"/>
</g>
</svg>
